<svg width="180" height="93" viewBox="0 0 180 93" fill="none" xmlns="http://www.w3.org/2000/svg">
<path d="M161.2 0H0V93H161.2V0Z" fill="#13783A"/>
<path fill-rule="evenodd" clip-rule="evenodd" d="M165.175 83.4428C165.174 82.157 165.555 80.9 166.269 79.8306C166.983 78.7612 167.998 77.9275 169.185 77.4351C170.373 76.9427 171.68 76.8137 172.941 77.0643C174.202 77.315 175.361 77.934 176.27 78.8432C177.179 79.7524 177.798 80.9108 178.049 82.1719C178.299 83.433 178.17 84.7401 177.678 85.9278C177.186 87.1156 176.352 88.1306 175.283 88.8444C174.213 89.5582 172.956 89.9389 171.67 89.9381C169.948 89.937 168.296 89.2524 167.079 88.0345C165.861 86.8166 165.176 85.1651 165.175 83.4428ZM163.99 83.4428C163.989 81.9211 164.44 80.4333 165.284 79.1677C166.129 77.9021 167.331 76.9155 168.737 76.3328C170.142 75.7501 171.689 75.5974 173.182 75.8941C174.674 76.1908 176.045 76.9235 177.121 77.9995C178.198 79.0756 178.93 80.4466 179.227 81.9391C179.524 83.4317 179.371 84.9787 178.788 86.3844C178.205 87.7902 177.219 88.9915 175.953 89.8365C174.688 90.6814 173.2 91.132 171.678 91.1312C169.64 91.1291 167.685 90.3184 166.244 88.877C164.803 87.4356 163.992 85.4813 163.99 83.4428Z" fill="#231815"/>
<path fill-rule="evenodd" clip-rule="evenodd" d="M173.381 87.3621L172.105 84.632H170.35V87.3621H168.632V79.3576H172.298C174.021 79.3576 175.198 80.1873 175.198 82.0165C175.23 82.5063 175.11 82.994 174.853 83.4122C174.596 83.8305 174.215 84.1587 173.764 84.3515L175.246 87.3621H173.381ZM173.167 81.1908C172.848 80.9548 172.452 80.8476 172.057 80.8905H170.35V83.0991H172.346C173.069 83.0991 173.476 82.7632 173.476 82.0165C173.486 81.8649 173.464 81.7127 173.411 81.5702C173.358 81.4278 173.275 81.2984 173.167 81.1908Z" fill="#231815"/>
<path d="M46.3916 19.8256L47.727 13.5555C47.727 13.4528 47.7546 13.3501 47.7744 13.2434C47.796 13.1365 47.8237 13.031 47.8573 12.9273C48.1044 12.1964 48.566 11.557 49.182 11.0926C49.7981 10.6281 50.5398 10.3601 51.3104 10.3237C51.6423 10.3059 51.974 10.3614 52.282 10.486C52.5901 10.6106 52.867 10.8014 53.0931 11.0449C53.3193 11.2884 53.4892 11.5786 53.5907 11.895C53.6923 12.2115 53.7231 12.5463 53.681 12.876L53.6217 13.271L52.227 19.8414H62.4559H62.6732C64.2535 19.8414 65.2571 21.1926 64.9252 22.8559C64.5933 24.5192 63.0327 25.8704 61.4563 25.8704H51.7924C51.101 33.7722 54.163 40.0107 60.354 42.5946L60.5753 42.6854L60.5199 42.958L59.548 47.7821L59.4532 48.2404L59.0581 48.1614C51.9465 46.7785 47.6716 40.4216 46.4824 33.2942C44.9128 35.9735 43.0177 38.4484 40.8406 40.6626C42.1892 40.7836 43.4954 41.1961 44.669 41.8715C47.4702 43.4203 49.1058 45.8224 48.3117 47.2764C47.5176 48.7303 44.6018 48.6276 41.7967 47.0828C39.8212 46.0002 38.4463 44.487 38.0591 43.1832C34.9735 45.6723 31.4849 47.4778 27.7868 48.1416L27.3443 48.2206L27.4391 47.7623L28.4111 42.9383L28.4664 42.6657L28.7232 42.5748C35.9652 39.9909 41.5517 33.7564 44.2186 25.8507H33.9344C15.7208 26.8068 -2.68244 56.4424 25.9971 69.7056C47.6637 79.729 100.629 72.4475 124.177 57.4578C135.35 50.3462 143.666 44.8979 150.798 32.4961C151.643 30.9671 152.489 32.6699 152.489 32.6699C136.318 74.4822 36.1509 99.9575 13.1211 61.9065C2.1732 43.8114 12.1452 19.8532 35.1118 19.8335L46.3916 19.8256Z" fill="white"/>
<path d="M99.1909 19.8335C99.2633 19.8295 99.3358 19.8295 99.4082 19.8335C99.4792 19.8293 99.5505 19.8293 99.6215 19.8335H99.7717C101.135 20.035 101.964 21.3032 101.66 22.8361C101.5 23.5862 101.12 24.2714 100.568 24.8042C100.016 25.3369 99.3179 25.693 98.5627 25.827L98.1953 25.8507H88.5432C87.8558 33.7525 90.9138 39.9909 97.1048 42.5748L97.3261 42.6657L97.2707 42.9383L96.2988 47.7623L96.204 48.2206L95.8089 48.1376C88.6973 46.7588 84.4224 40.4018 83.2332 33.2704C81.6648 35.9599 79.7669 38.4432 77.5835 40.6626C78.9322 40.783 80.2386 41.1956 81.4119 41.8715C84.217 43.4203 85.8487 45.8224 85.0586 47.2764C84.2684 48.7303 81.3447 48.6276 78.5396 47.0828C76.5641 46.0002 75.1892 44.487 74.802 43.1832C71.7164 45.6723 68.2278 47.4778 64.5495 48.1376L64.103 48.2206L64.2018 47.7623L65.1698 42.9383L65.2251 42.6657L65.4819 42.5748C72.7239 39.9909 78.3104 33.7564 80.9773 25.8507H70.6734C69.3143 25.6334 68.4885 24.3651 68.7927 22.8361C68.9527 22.0877 69.332 21.4038 69.8823 20.8718C70.4326 20.3399 71.1289 19.9839 71.8823 19.8493H72.0404H72.2577C72.3287 19.8451 72.4 19.8451 72.471 19.8493H83.1384L84.4738 13.5713C84.4738 13.4646 84.5015 13.3659 84.5212 13.2592C84.5442 13.1523 84.5732 13.0467 84.6081 12.9431C84.8547 12.212 85.3162 11.5722 85.9323 11.1077C86.5485 10.6431 87.2904 10.3754 88.0612 10.3395C88.3932 10.321 88.7253 10.376 89.0337 10.5004C89.342 10.6248 89.6193 10.8156 89.8456 11.0592C90.0719 11.3029 90.2417 11.5934 90.343 11.9101C90.4443 12.2268 90.4746 12.562 90.4318 12.8918L90.3725 13.2868L88.9778 19.8611L99.1909 19.8335Z" fill="white"/>
<path d="M100.894 48.2167L102.079 42.7131C107.697 40.5243 110.333 36.9329 112.423 31.5044H109.053C107.31 31.5044 105.71 30.4219 106.801 27.8024L111.708 16.9059C112.213 15.5942 113.43 14.2943 114.868 14.2943C121.948 14.3378 128.645 13.4054 135.18 12.0423C135.646 11.8534 136.16 11.8139 136.649 11.9292C137.139 12.0446 137.581 12.3091 137.914 12.6863C138.755 13.757 138.388 15.4954 137.088 16.5661C136.746 16.8514 136.353 17.0698 135.931 17.2101L135.848 17.2377L135.366 17.3444C128.893 18.7072 122.316 19.5187 115.706 19.7703L112.778 25.8783H120.087L120.558 23.6658C120.558 23.5908 120.581 23.5197 120.597 23.4406C120.776 22.6786 121.199 21.9958 121.801 21.4965C122.404 20.9972 123.154 20.7087 123.936 20.675C125.461 20.675 126.433 21.9116 126.113 23.4406C126.089 23.5197 126.073 23.5947 126.049 23.6698L125.583 25.8783H134.082C135.634 25.8783 136.626 27.1387 136.298 28.6953C136.113 29.4723 135.68 30.1678 135.064 30.6762C134.447 31.1846 133.682 31.4781 132.884 31.5123H132.651H124.386L121.597 44.6609C121.361 45.6503 120.809 46.5361 120.025 47.1841C119.241 47.832 118.267 48.207 117.251 48.2522H110.582L111.743 42.7802H114.612C115.919 42.7802 116.642 42.1837 116.919 40.8759L118.894 31.5518H117.907C115.113 38.7306 110.795 45.9093 100.918 48.2641" fill="white"/>
<path d="M124.935 37.6678C124.727 37.2127 124.675 36.7013 124.789 36.2139C124.957 35.5109 125.349 34.8818 125.907 34.4219C126.464 33.962 127.157 33.6965 127.879 33.6655C128.263 33.6506 128.644 33.7485 128.974 33.9472C129.304 34.1458 129.569 34.4365 129.736 34.7836L133.947 43.4124C134.147 43.8643 134.195 44.3693 134.081 44.8505C133.915 45.5539 133.524 46.1838 132.967 46.6445C132.41 47.1051 131.718 47.3714 130.996 47.4028C130.615 47.4197 130.238 47.3262 129.909 47.1334C129.58 46.9406 129.314 46.6568 129.143 46.3163L124.923 37.6915L124.935 37.6678Z" fill="white"/>
</svg>
