<svg xmlns="http://www.w3.org/2000/svg" width="180" height="93" fill="none" viewBox="0 0 180 93"><path fill="#13783A" d="M161.2 0H0v93h161.2z"/><path fill="#231815" fill-rule="evenodd" d="M165.175 83.443a6.5 6.5 0 0 1 4.01-6.008 6.5 6.5 0 1 1-4.01 6.008m-1.185 0a7.694 7.694 0 0 1 15.237-1.504 7.69 7.69 0 0 1-3.274 7.897 7.69 7.69 0 0 1-9.709-.959 7.7 7.7 0 0 1-2.254-5.434" clip-rule="evenodd"/><path fill="#231815" fill-rule="evenodd" d="m173.381 87.362-1.276-2.73h-1.755v2.73h-1.718v-8.004h3.666c1.723 0 2.9.83 2.9 2.658a2.37 2.37 0 0 1-1.434 2.335l1.482 3.011zm-.214-6.171a1.58 1.58 0 0 0-1.11-.3h-1.707v2.208h1.996c.723 0 1.13-.336 1.13-1.083a1.08 1.08 0 0 0-.309-.825" clip-rule="evenodd"/><path fill="#fff" d="m46.392 19.826 1.335-6.27c0-.103.028-.206.047-.313q.033-.16.083-.316a3.84 3.84 0 0 1 3.453-2.603 2.267 2.267 0 0 1 2.371 2.552l-.06.395-1.394 6.57h10.446c1.58 0 2.584 1.352 2.252 3.015s-1.892 3.014-3.469 3.014h-9.664c-.691 7.902 2.371 14.14 8.562 16.725l.221.09-.055.273-.972 4.824-.095.458-.395-.079c-7.111-1.383-11.386-7.74-12.576-14.867a37.7 37.7 0 0 1-5.641 7.369 9.35 9.35 0 0 1 3.828 1.209c2.801 1.548 4.437 3.95 3.643 5.404s-3.71 1.352-6.515-.193c-1.976-1.083-3.35-2.596-3.738-3.9-3.085 2.49-6.574 4.295-10.272 4.959l-.443.079.095-.459.972-4.824.055-.272.257-.091c7.242-2.584 12.829-8.819 15.496-16.724H33.934c-18.213.956-36.616 30.591-7.937 43.855 21.667 10.023 74.632 2.742 98.18-12.248 11.173-7.112 19.489-12.56 26.621-24.962.845-1.529 1.691.174 1.691.174C136.318 74.482 36.151 99.958 13.121 61.907c-10.948-18.096-.976-42.054 21.99-42.073z"/><path fill="#fff" d="M99.19 19.834q.11-.008.218 0 .106-.008.213 0h.15c1.364.201 2.193 1.47 1.889 3.002a3.85 3.85 0 0 1-3.097 2.991l-.368.024h-9.652c-.687 7.901 2.37 14.14 8.562 16.724l.221.09-.055.273-.972 4.824-.095.459-.395-.083c-7.112-1.38-11.387-7.736-12.576-14.868a37.4 37.4 0 0 1-5.65 7.393 9.3 9.3 0 0 1 3.829 1.209c2.805 1.548 4.437 3.95 3.647 5.404s-3.714 1.352-6.52-.193c-1.975-1.083-3.35-2.596-3.737-3.9-3.086 2.49-6.574 4.295-10.253 4.955l-.446.083.099-.459.968-4.824.055-.272.257-.091c7.242-2.584 12.828-8.819 15.495-16.724H70.673c-1.359-.218-2.184-1.486-1.88-3.015a3.85 3.85 0 0 1 3.09-2.987h.375q.106-.006.213 0h10.667l1.336-6.278c0-.106.027-.205.047-.312q.035-.16.087-.316a3.83 3.83 0 0 1 3.453-2.604 2.263 2.263 0 0 1 2.37 2.553l-.058.395-1.395 6.574zm1.704 28.383 1.185-5.504c5.618-2.189 8.254-5.78 10.344-11.209h-3.37c-1.743 0-3.343-1.082-2.252-3.702l4.907-10.896c.505-1.312 1.722-2.612 3.16-2.612 7.08.044 13.777-.889 20.312-2.252a2.43 2.43 0 0 1 2.734.644c.841 1.071.474 2.81-.826 3.88a3.6 3.6 0 0 1-1.157.644l-.083.028-.482.106a117 117 0 0 1-19.66 2.426l-2.928 6.108h7.309l.471-2.212c0-.075.023-.146.039-.225a3.59 3.59 0 0 1 3.339-2.766c1.525 0 2.497 1.237 2.177 2.766-.024.079-.04.154-.064.229l-.466 2.208h8.499c1.552 0 2.544 1.26 2.216 2.817a3.67 3.67 0 0 1-3.414 2.817h-8.498l-2.789 13.149a4.684 4.684 0 0 1-4.346 3.591h-6.669l1.161-5.472h2.869c1.307 0 2.03-.596 2.307-1.904l1.975-9.324h-.987c-2.794 7.179-7.112 14.357-16.989 16.712"/><path fill="#fff" d="M124.935 37.668a2.26 2.26 0 0 1-.146-1.454 3.32 3.32 0 0 1 3.09-2.548 1.98 1.98 0 0 1 1.857 1.118l4.211 8.628c.2.452.248.957.134 1.438a3.316 3.316 0 0 1-3.085 2.553 1.98 1.98 0 0 1-1.853-1.087l-4.22-8.625z"/></svg>